<svg xmlns="http://www.w3.org/2000/svg" version="1.1" xmlns:xlink="http://www.w3.org/1999/xlink" xmlns:svgjs="http://svgjs.com/svgjs" width="1450" height="673" preserveAspectRatio="none" viewBox="0 0 1450 673"><g mask="url(&quot;#SvgjsMask6278&quot;)" fill="none"><g mask="url(&quot;#SvgjsMask6280&quot;)"><path d="M178.5 346.5L199.5 367.5M262.5 346.5L283.5 325.5L304.5 325.5M115.5 346.5L136.5 367.5M241.5 346.5L262.5 325.5M-10.5 346.5L10.5 346.5L31.5 346.5L52.5 346.5L73.5 346.5L94.5 346.5L115.5 346.5L136.5 346.5L157.5 346.5L178.5 346.5L199.5 346.5L220.5 346.5L241.5 346.5L262.5 346.5L283.5 346.5L304.5 346.5" stroke="url(#SvgjsLinearGradient6279)" stroke-width="3.5"></path><path d="M299.25 346.5 a5.25 5.25 0 1 0 10.5 0 a5.25 5.25 0 1 0 -10.5 0zM194.25 367.5 a5.25 5.25 0 1 0 10.5 0 a5.25 5.25 0 1 0 -10.5 0zM299.25 325.5 a5.25 5.25 0 1 0 10.5 0 a5.25 5.25 0 1 0 -10.5 0zM131.25 367.5 a5.25 5.25 0 1 0 10.5 0 a5.25 5.25 0 1 0 -10.5 0zM257.25 325.5 a5.25 5.25 0 1 0 10.5 0 a5.25 5.25 0 1 0 -10.5 0z" fill="url(#SvgjsLinearGradient6279)"></path><path d="M493.5 325.5L514.5 304.5L535.5 304.5L556.5 304.5L577.5 304.5L598.5 304.5L619.5 304.5L640.5 304.5L661.5 304.5L682.5 304.5L703.5 304.5L724.5 304.5M136.5 304.5L157.5 283.5L178.5 283.5L199.5 283.5L220.5 283.5L241.5 283.5L262.5 283.5M808.5 325.5L829.5 346.5L850.5 346.5L871.5 346.5M556.5 325.5L577.5 346.5M766.5 325.5L787.5 346.5L808.5 346.5L829.5 367.5M304.5 304.5L325.5 283.5L346.5 283.5L367.5 283.5L388.5 283.5L409.5 283.5L430.5 283.5L451.5 283.5M514.5 325.5L535.5 346.5L556.5 346.5M703.5 346.5L724.5 367.5L745.5 367.5L766.5 367.5L787.5 367.5L808.5 367.5M430.5 304.5L451.5 325.5L472.5 325.5L493.5 346.5L514.5 346.5L535.5 367.5M682.5 346.5L703.5 367.5L724.5 388.5L745.5 388.5L766.5 388.5L787.5 388.5L808.5 388.5M-10.5 325.5L10.5 325.5L31.5 325.5L52.5 325.5L73.5 304.5L94.5 304.5L115.5 304.5L136.5 304.5L157.5 304.5L178.5 304.5L199.5 304.5L220.5 304.5L241.5 304.5L262.5 304.5L283.5 304.5L304.5 304.5L325.5 304.5L346.5 304.5L367.5 304.5L388.5 304.5L409.5 304.5L430.5 304.5L451.5 304.5L472.5 304.5L493.5 325.5L514.5 325.5L535.5 325.5L556.5 325.5L577.5 325.5L598.5 325.5L619.5 325.5L640.5 346.5L661.5 346.5L682.5 346.5L703.5 346.5L724.5 325.5L745.5 325.5L766.5 325.5L787.5 325.5L808.5 325.5L829.5 325.5L850.5 325.5" stroke="url(#SvgjsLinearGradient6279)" stroke-width="3.5"></path><path d="M845.25 325.5 a5.25 5.25 0 1 0 10.5 0 a5.25 5.25 0 1 0 -10.5 0zM719.25 304.5 a5.25 5.25 0 1 0 10.5 0 a5.25 5.25 0 1 0 -10.5 0zM257.25 283.5 a5.25 5.25 0 1 0 10.5 0 a5.25 5.25 0 1 0 -10.5 0zM866.25 346.5 a5.25 5.25 0 1 0 10.5 0 a5.25 5.25 0 1 0 -10.5 0zM572.25 346.5 a5.25 5.25 0 1 0 10.5 0 a5.25 5.25 0 1 0 -10.5 0zM824.25 367.5 a5.25 5.25 0 1 0 10.5 0 a5.25 5.25 0 1 0 -10.5 0zM446.25 283.5 a5.25 5.25 0 1 0 10.5 0 a5.25 5.25 0 1 0 -10.5 0zM551.25 346.5 a5.25 5.25 0 1 0 10.5 0 a5.25 5.25 0 1 0 -10.5 0zM803.25 367.5 a5.25 5.25 0 1 0 10.5 0 a5.25 5.25 0 1 0 -10.5 0zM530.25 367.5 a5.25 5.25 0 1 0 10.5 0 a5.25 5.25 0 1 0 -10.5 0zM803.25 388.5 a5.25 5.25 0 1 0 10.5 0 a5.25 5.25 0 1 0 -10.5 0z" fill="url(#SvgjsLinearGradient6279)"></path><path d="M52.5 388.5L73.5 367.5L94.5 367.5L115.5 367.5M-10.5 367.5L10.5 367.5L31.5 388.5L52.5 388.5L73.5 388.5L94.5 388.5L115.5 388.5L136.5 388.5" stroke="url(#SvgjsLinearGradient6279)" stroke-width="3.5"></path><path d="M131.25 388.5 a5.25 5.25 0 1 0 10.5 0 a5.25 5.25 0 1 0 -10.5 0zM110.25 367.5 a5.25 5.25 0 1 0 10.5 0 a5.25 5.25 0 1 0 -10.5 0z" fill="url(#SvgjsLinearGradient6279)"></path><path d="M283.5 262.5L304.5 283.5M703.5 241.5L724.5 220.5L745.5 220.5L766.5 199.5L787.5 199.5M451.5 262.5L472.5 262.5L493.5 262.5L514.5 262.5L535.5 262.5L556.5 262.5M367.5 262.5L388.5 241.5L409.5 241.5L430.5 241.5L451.5 220.5L472.5 220.5L493.5 220.5L514.5 220.5L535.5 220.5L556.5 220.5L577.5 220.5L598.5 220.5M304.5 262.5L325.5 241.5L346.5 241.5L367.5 241.5M115.5 262.5L136.5 283.5M640.5 262.5L661.5 262.5L682.5 262.5L703.5 262.5L724.5 262.5L745.5 262.5L766.5 262.5L787.5 262.5L808.5 262.5L829.5 262.5L850.5 262.5L871.5 262.5L892.5 262.5L913.5 262.5M31.5 283.5L52.5 304.5M829.5 241.5L850.5 241.5L871.5 241.5L892.5 241.5L913.5 241.5L934.5 241.5L955.5 241.5L976.5 241.5L997.5 241.5M787.5 241.5L808.5 220.5M619.5 283.5L640.5 283.5M-10.5 304.5L10.5 304.5L31.5 283.5L52.5 283.5L73.5 283.5L94.5 283.5L115.5 262.5L136.5 262.5L157.5 262.5L178.5 262.5L199.5 262.5L220.5 262.5L241.5 262.5L262.5 262.5L283.5 262.5L304.5 262.5L325.5 262.5L346.5 262.5L367.5 262.5L388.5 262.5L409.5 262.5L430.5 262.5L451.5 262.5L472.5 283.5L493.5 283.5L514.5 283.5L535.5 283.5L556.5 283.5L577.5 283.5L598.5 283.5L619.5 283.5L640.5 262.5L661.5 241.5L682.5 241.5L703.5 241.5L724.5 241.5L745.5 241.5L766.5 241.5L787.5 241.5L808.5 241.5L829.5 241.5L850.5 220.5L871.5 220.5L892.5 220.5" stroke="url(#SvgjsLinearGradient6279)" stroke-width="3.5"></path><path d="M887.25 220.5 a5.25 5.25 0 1 0 10.5 0 a5.25 5.25 0 1 0 -10.5 0zM299.25 283.5 a5.25 5.25 0 1 0 10.5 0 a5.25 5.25 0 1 0 -10.5 0zM782.25 199.5 a5.25 5.25 0 1 0 10.5 0 a5.25 5.25 0 1 0 -10.5 0zM551.25 262.5 a5.25 5.25 0 1 0 10.5 0 a5.25 5.25 0 1 0 -10.5 0zM593.25 220.5 a5.25 5.25 0 1 0 10.5 0 a5.25 5.25 0 1 0 -10.5 0zM362.25 241.5 a5.25 5.25 0 1 0 10.5 0 a5.25 5.25 0 1 0 -10.5 0zM131.25 283.5 a5.25 5.25 0 1 0 10.5 0 a5.25 5.25 0 1 0 -10.5 0zM908.25 262.5 a5.25 5.25 0 1 0 10.5 0 a5.25 5.25 0 1 0 -10.5 0zM47.25 304.5 a5.25 5.25 0 1 0 10.5 0 a5.25 5.25 0 1 0 -10.5 0zM992.25 241.5 a5.25 5.25 0 1 0 10.5 0 a5.25 5.25 0 1 0 -10.5 0zM803.25 220.5 a5.25 5.25 0 1 0 10.5 0 a5.25 5.25 0 1 0 -10.5 0zM635.25 283.5 a5.25 5.25 0 1 0 10.5 0 a5.25 5.25 0 1 0 -10.5 0z" fill="url(#SvgjsLinearGradient6279)"></path><path d="M766.5 409.5L787.5 430.5L808.5 430.5L829.5 430.5M598.5 409.5L619.5 430.5L640.5 451.5M409.5 367.5L430.5 346.5M682.5 409.5L703.5 388.5M472.5 367.5L493.5 388.5L514.5 409.5L535.5 430.5L556.5 430.5L577.5 430.5L598.5 430.5L619.5 451.5M514.5 388.5L535.5 388.5L556.5 388.5L577.5 388.5M871.5 388.5L892.5 409.5L913.5 409.5L934.5 409.5L955.5 409.5M283.5 367.5L304.5 388.5L325.5 388.5L346.5 388.5L367.5 388.5L388.5 388.5L409.5 388.5M892.5 388.5L913.5 367.5L934.5 346.5L955.5 346.5L976.5 367.5L997.5 367.5L1018.5 367.5L1039.5 367.5M241.5 367.5L262.5 388.5L283.5 388.5M829.5 388.5L850.5 409.5L871.5 409.5L892.5 430.5M-10.5 388.5L10.5 388.5L31.5 409.5L52.5 409.5L73.5 409.5L94.5 409.5L115.5 409.5L136.5 409.5L157.5 409.5L178.5 388.5L199.5 388.5L220.5 367.5L241.5 367.5L262.5 367.5L283.5 367.5L304.5 367.5L325.5 367.5L346.5 367.5L367.5 367.5L388.5 367.5L409.5 367.5L430.5 367.5L451.5 367.5L472.5 367.5L493.5 367.5L514.5 388.5L535.5 409.5L556.5 409.5L577.5 409.5L598.5 409.5L619.5 409.5L640.5 409.5L661.5 409.5L682.5 409.5L703.5 409.5L724.5 409.5L745.5 409.5L766.5 409.5L787.5 409.5L808.5 409.5L829.5 388.5L850.5 388.5L871.5 388.5L892.5 388.5L913.5 388.5" stroke="url(#SvgjsLinearGradient6279)" stroke-width="3.5"></path><path d="M908.25 388.5 a5.25 5.25 0 1 0 10.5 0 a5.25 5.25 0 1 0 -10.5 0zM824.25 430.5 a5.25 5.25 0 1 0 10.5 0 a5.25 5.25 0 1 0 -10.5 0zM635.25 451.5 a5.25 5.25 0 1 0 10.5 0 a5.25 5.25 0 1 0 -10.5 0zM425.25 346.5 a5.25 5.25 0 1 0 10.5 0 a5.25 5.25 0 1 0 -10.5 0zM698.25 388.5 a5.25 5.25 0 1 0 10.5 0 a5.25 5.25 0 1 0 -10.5 0zM614.25 451.5 a5.25 5.25 0 1 0 10.5 0 a5.25 5.25 0 1 0 -10.5 0zM572.25 388.5 a5.25 5.25 0 1 0 10.5 0 a5.25 5.25 0 1 0 -10.5 0zM950.25 409.5 a5.25 5.25 0 1 0 10.5 0 a5.25 5.25 0 1 0 -10.5 0zM404.25 388.5 a5.25 5.25 0 1 0 10.5 0 a5.25 5.25 0 1 0 -10.5 0zM1034.25 367.5 a5.25 5.25 0 1 0 10.5 0 a5.25 5.25 0 1 0 -10.5 0zM278.25 388.5 a5.25 5.25 0 1 0 10.5 0 a5.25 5.25 0 1 0 -10.5 0zM887.25 430.5 a5.25 5.25 0 1 0 10.5 0 a5.25 5.25 0 1 0 -10.5 0z" fill="url(#SvgjsLinearGradient6279)"></path><path d="M73.5 262.5L94.5 262.5M-10.5 283.5L10.5 283.5L31.5 262.5L52.5 262.5L73.5 262.5L94.5 241.5L115.5 241.5L136.5 241.5L157.5 241.5L178.5 241.5L199.5 241.5L220.5 241.5L241.5 241.5L262.5 241.5L283.5 241.5L304.5 220.5L325.5 220.5L346.5 220.5L367.5 220.5L388.5 220.5L409.5 199.5" stroke="url(#SvgjsLinearGradient6279)" stroke-width="3.5"></path><path d="M404.25 199.5 a5.25 5.25 0 1 0 10.5 0 a5.25 5.25 0 1 0 -10.5 0zM89.25 262.5 a5.25 5.25 0 1 0 10.5 0 a5.25 5.25 0 1 0 -10.5 0z" fill="url(#SvgjsLinearGradient6279)"></path><path d="M73.5 430.5L94.5 451.5L115.5 451.5L136.5 451.5L157.5 451.5L178.5 451.5L199.5 451.5L220.5 451.5M199.5 409.5L220.5 430.5M325.5 409.5L346.5 430.5L367.5 430.5L388.5 430.5L409.5 430.5L430.5 430.5L451.5 451.5M262.5 409.5L283.5 430.5L304.5 451.5M241.5 409.5L262.5 430.5L283.5 451.5M-10.5 409.5L10.5 409.5L31.5 430.5L52.5 430.5L73.5 430.5L94.5 430.5L115.5 430.5L136.5 430.5L157.5 430.5L178.5 430.5L199.5 409.5L220.5 409.5L241.5 409.5L262.5 409.5L283.5 409.5L304.5 409.5L325.5 409.5L346.5 409.5L367.5 409.5L388.5 409.5L409.5 409.5L430.5 409.5L451.5 430.5" stroke="url(#SvgjsLinearGradient6279)" stroke-width="3.5"></path><path d="M446.25 430.5 a5.25 5.25 0 1 0 10.5 0 a5.25 5.25 0 1 0 -10.5 0zM215.25 451.5 a5.25 5.25 0 1 0 10.5 0 a5.25 5.25 0 1 0 -10.5 0zM215.25 430.5 a5.25 5.25 0 1 0 10.5 0 a5.25 5.25 0 1 0 -10.5 0zM446.25 451.5 a5.25 5.25 0 1 0 10.5 0 a5.25 5.25 0 1 0 -10.5 0zM299.25 451.5 a5.25 5.25 0 1 0 10.5 0 a5.25 5.25 0 1 0 -10.5 0zM278.25 451.5 a5.25 5.25 0 1 0 10.5 0 a5.25 5.25 0 1 0 -10.5 0z" fill="url(#SvgjsLinearGradient6279)"></path><path d="M-10.5 262.5L10.5 262.5" stroke="url(#SvgjsLinearGradient6279)" stroke-width="3.5"></path><path d="M5.25 262.5 a5.25 5.25 0 1 0 10.5 0 a5.25 5.25 0 1 0 -10.5 0z" fill="url(#SvgjsLinearGradient6279)"></path><path d="M-10.5 430.5L10.5 430.5L31.5 451.5L52.5 451.5" stroke="url(#SvgjsLinearGradient6279)" stroke-width="3.5"></path><path d="M47.25 451.5 a5.25 5.25 0 1 0 10.5 0 a5.25 5.25 0 1 0 -10.5 0z" fill="url(#SvgjsLinearGradient6279)"></path><path d="M430.5 178.5L451.5 199.5L472.5 199.5L493.5 199.5L514.5 199.5L535.5 199.5L556.5 199.5L577.5 199.5L598.5 199.5L619.5 199.5L640.5 199.5L661.5 199.5M913.5 157.5L934.5 136.5L955.5 136.5L976.5 136.5L997.5 136.5M955.5 157.5L976.5 178.5L997.5 178.5L1018.5 178.5L1039.5 178.5M1018.5 157.5L1039.5 136.5M934.5 157.5L955.5 178.5L976.5 199.5L997.5 199.5L1018.5 199.5L1039.5 199.5M808.5 157.5L829.5 136.5M241.5 220.5L262.5 199.5L283.5 199.5M724.5 178.5L745.5 199.5M682.5 178.5L703.5 199.5M52.5 241.5L73.5 220.5M787.5 157.5L808.5 178.5L829.5 178.5L850.5 178.5L871.5 178.5L892.5 178.5L913.5 178.5L934.5 178.5L955.5 199.5L976.5 220.5L997.5 220.5L1018.5 241.5L1039.5 241.5M220.5 220.5L241.5 199.5M-10.5 241.5L10.5 241.5L31.5 241.5L52.5 241.5L73.5 241.5L94.5 220.5L115.5 220.5L136.5 220.5L157.5 220.5L178.5 220.5L199.5 220.5L220.5 220.5L241.5 220.5L262.5 220.5L283.5 220.5L304.5 199.5L325.5 199.5L346.5 199.5L367.5 199.5L388.5 199.5L409.5 178.5L430.5 178.5L451.5 178.5L472.5 178.5L493.5 178.5L514.5 178.5L535.5 178.5L556.5 178.5L577.5 178.5L598.5 178.5L619.5 178.5L640.5 178.5L661.5 178.5L682.5 178.5L703.5 178.5L724.5 178.5L745.5 178.5L766.5 178.5L787.5 157.5L808.5 157.5L829.5 157.5L850.5 157.5L871.5 157.5L892.5 157.5L913.5 157.5L934.5 157.5L955.5 157.5L976.5 157.5L997.5 157.5L1018.5 157.5L1039.5 157.5" stroke="url(#SvgjsLinearGradient6279)" stroke-width="3.5"></path><path d="M1034.25 157.5 a5.25 5.25 0 1 0 10.5 0 a5.25 5.25 0 1 0 -10.5 0zM656.25 199.5 a5.25 5.25 0 1 0 10.5 0 a5.25 5.25 0 1 0 -10.5 0zM992.25 136.5 a5.25 5.25 0 1 0 10.5 0 a5.25 5.25 0 1 0 -10.5 0zM1034.25 178.5 a5.25 5.25 0 1 0 10.5 0 a5.25 5.25 0 1 0 -10.5 0zM1034.25 136.5 a5.25 5.25 0 1 0 10.5 0 a5.25 5.25 0 1 0 -10.5 0zM1034.25 199.5 a5.25 5.25 0 1 0 10.5 0 a5.25 5.25 0 1 0 -10.5 0zM824.25 136.5 a5.25 5.25 0 1 0 10.5 0 a5.25 5.25 0 1 0 -10.5 0zM278.25 199.5 a5.25 5.25 0 1 0 10.5 0 a5.25 5.25 0 1 0 -10.5 0zM740.25 199.5 a5.25 5.25 0 1 0 10.5 0 a5.25 5.25 0 1 0 -10.5 0zM698.25 199.5 a5.25 5.25 0 1 0 10.5 0 a5.25 5.25 0 1 0 -10.5 0zM68.25 220.5 a5.25 5.25 0 1 0 10.5 0 a5.25 5.25 0 1 0 -10.5 0zM1034.25 241.5 a5.25 5.25 0 1 0 10.5 0 a5.25 5.25 0 1 0 -10.5 0zM236.25 199.5 a5.25 5.25 0 1 0 10.5 0 a5.25 5.25 0 1 0 -10.5 0z" fill="url(#SvgjsLinearGradient6279)"></path><path d="M493.5 493.5L514.5 472.5L535.5 472.5L556.5 472.5L577.5 472.5L598.5 472.5M451.5 493.5L472.5 472.5L493.5 472.5L514.5 451.5L535.5 451.5L556.5 451.5L577.5 451.5M241.5 472.5L262.5 493.5L283.5 493.5L304.5 493.5L325.5 493.5L346.5 493.5M535.5 493.5L556.5 514.5L577.5 514.5L598.5 514.5L619.5 514.5L640.5 514.5L661.5 514.5M430.5 493.5L451.5 472.5M388.5 472.5L409.5 451.5L430.5 451.5M409.5 472.5L430.5 472.5M514.5 493.5L535.5 514.5L556.5 535.5M-10.5 451.5L10.5 451.5L31.5 472.5L52.5 472.5L73.5 472.5L94.5 472.5L115.5 472.5L136.5 472.5L157.5 472.5L178.5 472.5L199.5 472.5L220.5 472.5L241.5 472.5L262.5 472.5L283.5 472.5L304.5 472.5L325.5 472.5L346.5 472.5L367.5 472.5L388.5 472.5L409.5 472.5L430.5 493.5L451.5 493.5L472.5 493.5L493.5 493.5L514.5 493.5L535.5 493.5L556.5 493.5L577.5 493.5L598.5 493.5L619.5 493.5L640.5 493.5" stroke="url(#SvgjsLinearGradient6279)" stroke-width="3.5"></path><path d="M635.25 493.5 a5.25 5.25 0 1 0 10.5 0 a5.25 5.25 0 1 0 -10.5 0zM593.25 472.5 a5.25 5.25 0 1 0 10.5 0 a5.25 5.25 0 1 0 -10.5 0zM572.25 451.5 a5.25 5.25 0 1 0 10.5 0 a5.25 5.25 0 1 0 -10.5 0zM341.25 493.5 a5.25 5.25 0 1 0 10.5 0 a5.25 5.25 0 1 0 -10.5 0zM656.25 514.5 a5.25 5.25 0 1 0 10.5 0 a5.25 5.25 0 1 0 -10.5 0zM446.25 472.5 a5.25 5.25 0 1 0 10.5 0 a5.25 5.25 0 1 0 -10.5 0zM425.25 451.5 a5.25 5.25 0 1 0 10.5 0 a5.25 5.25 0 1 0 -10.5 0zM425.25 472.5 a5.25 5.25 0 1 0 10.5 0 a5.25 5.25 0 1 0 -10.5 0zM551.25 535.5 a5.25 5.25 0 1 0 10.5 0 a5.25 5.25 0 1 0 -10.5 0z" fill="url(#SvgjsLinearGradient6279)"></path><path d="M472.5 157.5L493.5 136.5L514.5 136.5L535.5 136.5L556.5 136.5L577.5 136.5L598.5 136.5L619.5 136.5L640.5 136.5L661.5 136.5M724.5 157.5L745.5 136.5L766.5 115.5L787.5 115.5L808.5 94.5L829.5 94.5L850.5 94.5L871.5 94.5L892.5 94.5M31.5 220.5L52.5 220.5M829.5 115.5L850.5 115.5L871.5 115.5L892.5 115.5L913.5 115.5M682.5 157.5L703.5 136.5L724.5 136.5L745.5 115.5M787.5 136.5L808.5 136.5M745.5 157.5L766.5 157.5M199.5 199.5L220.5 199.5M451.5 157.5L472.5 136.5M-10.5 220.5L10.5 220.5L31.5 220.5L52.5 199.5L73.5 199.5L94.5 199.5L115.5 199.5L136.5 199.5L157.5 199.5L178.5 199.5L199.5 199.5L220.5 178.5L241.5 178.5L262.5 178.5L283.5 178.5L304.5 178.5L325.5 178.5L346.5 178.5L367.5 178.5L388.5 178.5L409.5 157.5L430.5 157.5L451.5 157.5L472.5 157.5L493.5 157.5L514.5 157.5L535.5 157.5L556.5 157.5L577.5 157.5L598.5 157.5L619.5 157.5L640.5 157.5L661.5 157.5L682.5 157.5L703.5 157.5L724.5 157.5L745.5 157.5L766.5 136.5L787.5 136.5L808.5 115.5L829.5 115.5L850.5 136.5L871.5 136.5L892.5 136.5" stroke="url(#SvgjsLinearGradient6279)" stroke-width="3.5"></path><path d="M887.25 136.5 a5.25 5.25 0 1 0 10.5 0 a5.25 5.25 0 1 0 -10.5 0zM656.25 136.5 a5.25 5.25 0 1 0 10.5 0 a5.25 5.25 0 1 0 -10.5 0zM887.25 94.5 a5.25 5.25 0 1 0 10.5 0 a5.25 5.25 0 1 0 -10.5 0zM47.25 220.5 a5.25 5.25 0 1 0 10.5 0 a5.25 5.25 0 1 0 -10.5 0zM908.25 115.5 a5.25 5.25 0 1 0 10.5 0 a5.25 5.25 0 1 0 -10.5 0zM740.25 115.5 a5.25 5.25 0 1 0 10.5 0 a5.25 5.25 0 1 0 -10.5 0zM803.25 136.5 a5.25 5.25 0 1 0 10.5 0 a5.25 5.25 0 1 0 -10.5 0zM761.25 157.5 a5.25 5.25 0 1 0 10.5 0 a5.25 5.25 0 1 0 -10.5 0zM215.25 199.5 a5.25 5.25 0 1 0 10.5 0 a5.25 5.25 0 1 0 -10.5 0zM467.25 136.5 a5.25 5.25 0 1 0 10.5 0 a5.25 5.25 0 1 0 -10.5 0z" fill="url(#SvgjsLinearGradient6279)"></path><path d="M451.5 514.5L472.5 535.5L493.5 535.5M388.5 493.5L409.5 514.5L430.5 535.5L451.5 535.5L472.5 556.5L493.5 556.5L514.5 556.5L535.5 556.5L556.5 556.5M157.5 493.5L178.5 514.5L199.5 514.5M367.5 493.5L388.5 514.5L409.5 535.5M346.5 514.5L367.5 514.5L388.5 535.5M220.5 493.5L241.5 493.5M-10.5 472.5L10.5 493.5L31.5 493.5L52.5 493.5L73.5 493.5L94.5 493.5L115.5 493.5L136.5 493.5L157.5 493.5L178.5 493.5L199.5 493.5L220.5 493.5L241.5 514.5L262.5 514.5L283.5 514.5L304.5 514.5L325.5 514.5L346.5 514.5L367.5 493.5L388.5 493.5L409.5 493.5L430.5 514.5L451.5 514.5L472.5 514.5L493.5 514.5" stroke="url(#SvgjsLinearGradient6279)" stroke-width="3.5"></path><path d="M488.25 514.5 a5.25 5.25 0 1 0 10.5 0 a5.25 5.25 0 1 0 -10.5 0zM488.25 535.5 a5.25 5.25 0 1 0 10.5 0 a5.25 5.25 0 1 0 -10.5 0zM551.25 556.5 a5.25 5.25 0 1 0 10.5 0 a5.25 5.25 0 1 0 -10.5 0zM194.25 514.5 a5.25 5.25 0 1 0 10.5 0 a5.25 5.25 0 1 0 -10.5 0zM404.25 535.5 a5.25 5.25 0 1 0 10.5 0 a5.25 5.25 0 1 0 -10.5 0zM383.25 535.5 a5.25 5.25 0 1 0 10.5 0 a5.25 5.25 0 1 0 -10.5 0zM236.25 493.5 a5.25 5.25 0 1 0 10.5 0 a5.25 5.25 0 1 0 -10.5 0z" fill="url(#SvgjsLinearGradient6279)"></path><path d="M808.5 73.5L829.5 52.5L850.5 52.5L871.5 52.5L892.5 52.5L913.5 52.5L934.5 52.5L955.5 52.5L976.5 73.5M220.5 157.5L241.5 136.5L262.5 136.5L283.5 136.5L304.5 136.5L325.5 136.5M115.5 178.5L136.5 157.5L157.5 157.5L178.5 157.5L199.5 157.5M451.5 115.5L472.5 94.5L493.5 94.5L514.5 94.5L535.5 94.5L556.5 94.5L577.5 94.5L598.5 94.5L619.5 73.5L640.5 73.5M682.5 94.5L703.5 73.5L724.5 73.5L745.5 73.5L766.5 73.5L787.5 52.5L808.5 52.5M10.5 199.5L31.5 178.5L52.5 157.5L73.5 157.5L94.5 157.5L115.5 157.5L136.5 136.5L157.5 136.5L178.5 136.5L199.5 136.5L220.5 136.5L241.5 115.5L262.5 115.5L283.5 115.5L304.5 115.5L325.5 115.5M703.5 94.5L724.5 115.5M409.5 136.5L430.5 115.5L451.5 94.5L472.5 73.5M367.5 157.5L388.5 136.5L409.5 115.5L430.5 94.5L451.5 73.5L472.5 52.5L493.5 52.5L514.5 52.5L535.5 52.5L556.5 52.5M346.5 157.5L367.5 136.5L388.5 115.5L409.5 94.5L430.5 73.5L451.5 52.5M-10.5 199.5L10.5 199.5L31.5 199.5L52.5 178.5L73.5 178.5L94.5 178.5L115.5 178.5L136.5 178.5L157.5 178.5L178.5 178.5L199.5 178.5L220.5 157.5L241.5 157.5L262.5 157.5L283.5 157.5L304.5 157.5L325.5 157.5L346.5 157.5L367.5 157.5L388.5 157.5L409.5 136.5L430.5 136.5L451.5 115.5L472.5 115.5L493.5 115.5L514.5 115.5L535.5 115.5L556.5 115.5L577.5 115.5L598.5 115.5L619.5 94.5L640.5 94.5L661.5 94.5L682.5 94.5L703.5 94.5L724.5 94.5L745.5 94.5L766.5 94.5L787.5 73.5L808.5 73.5L829.5 73.5L850.5 73.5" stroke="url(#SvgjsLinearGradient6279)" stroke-width="3.5"></path><path d="M845.25 73.5 a5.25 5.25 0 1 0 10.5 0 a5.25 5.25 0 1 0 -10.5 0zM971.25 73.5 a5.25 5.25 0 1 0 10.5 0 a5.25 5.25 0 1 0 -10.5 0zM320.25 136.5 a5.25 5.25 0 1 0 10.5 0 a5.25 5.25 0 1 0 -10.5 0zM194.25 157.5 a5.25 5.25 0 1 0 10.5 0 a5.25 5.25 0 1 0 -10.5 0zM635.25 73.5 a5.25 5.25 0 1 0 10.5 0 a5.25 5.25 0 1 0 -10.5 0zM803.25 52.5 a5.25 5.25 0 1 0 10.5 0 a5.25 5.25 0 1 0 -10.5 0zM320.25 115.5 a5.25 5.25 0 1 0 10.5 0 a5.25 5.25 0 1 0 -10.5 0zM719.25 115.5 a5.25 5.25 0 1 0 10.5 0 a5.25 5.25 0 1 0 -10.5 0zM467.25 73.5 a5.25 5.25 0 1 0 10.5 0 a5.25 5.25 0 1 0 -10.5 0zM551.25 52.5 a5.25 5.25 0 1 0 10.5 0 a5.25 5.25 0 1 0 -10.5 0zM446.25 52.5 a5.25 5.25 0 1 0 10.5 0 a5.25 5.25 0 1 0 -10.5 0z" fill="url(#SvgjsLinearGradient6279)"></path><path d="M73.5 514.5L94.5 535.5L115.5 535.5L136.5 535.5M388.5 577.5L409.5 556.5M241.5 535.5L262.5 556.5L283.5 556.5L304.5 577.5L325.5 577.5L346.5 598.5L367.5 598.5L388.5 598.5L409.5 598.5L430.5 598.5M304.5 556.5L325.5 535.5L346.5 535.5L367.5 535.5L388.5 556.5M472.5 598.5L493.5 619.5L514.5 619.5M10.5 514.5L31.5 535.5L52.5 535.5L73.5 535.5L94.5 556.5L115.5 556.5L136.5 556.5M-10.5 493.5L10.5 514.5L31.5 514.5L52.5 514.5L73.5 514.5L94.5 514.5L115.5 514.5L136.5 514.5L157.5 535.5L178.5 535.5L199.5 535.5L220.5 535.5L241.5 535.5L262.5 535.5L283.5 535.5L304.5 556.5L325.5 556.5L346.5 556.5L367.5 577.5L388.5 577.5L409.5 577.5L430.5 577.5L451.5 598.5L472.5 598.5L493.5 598.5" stroke="url(#SvgjsLinearGradient6279)" stroke-width="3.5"></path><path d="M488.25 598.5 a5.25 5.25 0 1 0 10.5 0 a5.25 5.25 0 1 0 -10.5 0zM131.25 535.5 a5.25 5.25 0 1 0 10.5 0 a5.25 5.25 0 1 0 -10.5 0zM404.25 556.5 a5.25 5.25 0 1 0 10.5 0 a5.25 5.25 0 1 0 -10.5 0zM425.25 598.5 a5.25 5.25 0 1 0 10.5 0 a5.25 5.25 0 1 0 -10.5 0zM383.25 556.5 a5.25 5.25 0 1 0 10.5 0 a5.25 5.25 0 1 0 -10.5 0zM509.25 619.5 a5.25 5.25 0 1 0 10.5 0 a5.25 5.25 0 1 0 -10.5 0zM131.25 556.5 a5.25 5.25 0 1 0 10.5 0 a5.25 5.25 0 1 0 -10.5 0z" fill="url(#SvgjsLinearGradient6279)"></path></g></g><defs><mask id="SvgjsMask6278"><rect width="1450" height="673" fill="#ffffff"></rect></mask><linearGradient x1="0" y1="336.5" x2="1073" y2="336.5" gradientUnits="userSpaceOnUse" id="SvgjsLinearGradient6279"><stop stop-color="#3a7cc3" offset="0"></stop><stop stop-color="#dd1133" offset="1"></stop></linearGradient><mask id="SvgjsMask6280"><rect width="1450" height="673" fill="white"></rect><path d="M301.87 346.5 a2.63 2.63 0 1 0 5.26 0 a2.63 2.63 0 1 0 -5.26 0zM196.87 367.5 a2.63 2.63 0 1 0 5.26 0 a2.63 2.63 0 1 0 -5.26 0zM301.87 325.5 a2.63 2.63 0 1 0 5.26 0 a2.63 2.63 0 1 0 -5.26 0zM133.87 367.5 a2.63 2.63 0 1 0 5.26 0 a2.63 2.63 0 1 0 -5.26 0zM259.87 325.5 a2.63 2.63 0 1 0 5.26 0 a2.63 2.63 0 1 0 -5.26 0z" fill="black"></path><path d="M847.87 325.5 a2.63 2.63 0 1 0 5.26 0 a2.63 2.63 0 1 0 -5.26 0zM721.87 304.5 a2.63 2.63 0 1 0 5.26 0 a2.63 2.63 0 1 0 -5.26 0zM259.87 283.5 a2.63 2.63 0 1 0 5.26 0 a2.63 2.63 0 1 0 -5.26 0zM868.87 346.5 a2.63 2.63 0 1 0 5.26 0 a2.63 2.63 0 1 0 -5.26 0zM574.87 346.5 a2.63 2.63 0 1 0 5.26 0 a2.63 2.63 0 1 0 -5.26 0zM826.87 367.5 a2.63 2.63 0 1 0 5.26 0 a2.63 2.63 0 1 0 -5.26 0zM448.87 283.5 a2.63 2.63 0 1 0 5.26 0 a2.63 2.63 0 1 0 -5.26 0zM553.87 346.5 a2.63 2.63 0 1 0 5.26 0 a2.63 2.63 0 1 0 -5.26 0zM805.87 367.5 a2.63 2.63 0 1 0 5.26 0 a2.63 2.63 0 1 0 -5.26 0zM532.87 367.5 a2.63 2.63 0 1 0 5.26 0 a2.63 2.63 0 1 0 -5.26 0zM805.87 388.5 a2.63 2.63 0 1 0 5.26 0 a2.63 2.63 0 1 0 -5.26 0z" fill="black"></path><path d="M133.87 388.5 a2.63 2.63 0 1 0 5.26 0 a2.63 2.63 0 1 0 -5.26 0zM112.87 367.5 a2.63 2.63 0 1 0 5.26 0 a2.63 2.63 0 1 0 -5.26 0z" fill="black"></path><path d="M889.87 220.5 a2.63 2.63 0 1 0 5.26 0 a2.63 2.63 0 1 0 -5.26 0zM301.87 283.5 a2.63 2.63 0 1 0 5.26 0 a2.63 2.63 0 1 0 -5.26 0zM784.87 199.5 a2.63 2.63 0 1 0 5.26 0 a2.63 2.63 0 1 0 -5.26 0zM553.87 262.5 a2.63 2.63 0 1 0 5.26 0 a2.63 2.63 0 1 0 -5.26 0zM595.87 220.5 a2.63 2.63 0 1 0 5.26 0 a2.63 2.63 0 1 0 -5.26 0zM364.87 241.5 a2.63 2.63 0 1 0 5.26 0 a2.63 2.63 0 1 0 -5.26 0zM133.87 283.5 a2.63 2.63 0 1 0 5.26 0 a2.63 2.63 0 1 0 -5.26 0zM910.87 262.5 a2.63 2.63 0 1 0 5.26 0 a2.63 2.63 0 1 0 -5.26 0zM49.87 304.5 a2.63 2.63 0 1 0 5.26 0 a2.63 2.63 0 1 0 -5.26 0zM994.87 241.5 a2.63 2.63 0 1 0 5.26 0 a2.63 2.63 0 1 0 -5.26 0zM805.87 220.5 a2.63 2.63 0 1 0 5.26 0 a2.63 2.63 0 1 0 -5.26 0zM637.87 283.5 a2.63 2.63 0 1 0 5.26 0 a2.63 2.63 0 1 0 -5.26 0z" fill="black"></path><path d="M910.87 388.5 a2.63 2.63 0 1 0 5.26 0 a2.63 2.63 0 1 0 -5.26 0zM826.87 430.5 a2.63 2.63 0 1 0 5.26 0 a2.63 2.63 0 1 0 -5.26 0zM637.87 451.5 a2.63 2.63 0 1 0 5.26 0 a2.63 2.63 0 1 0 -5.26 0zM427.87 346.5 a2.63 2.63 0 1 0 5.26 0 a2.63 2.63 0 1 0 -5.26 0zM700.87 388.5 a2.63 2.63 0 1 0 5.26 0 a2.63 2.63 0 1 0 -5.26 0zM616.87 451.5 a2.63 2.63 0 1 0 5.26 0 a2.63 2.63 0 1 0 -5.26 0zM574.87 388.5 a2.63 2.63 0 1 0 5.26 0 a2.63 2.63 0 1 0 -5.26 0zM952.87 409.5 a2.63 2.63 0 1 0 5.26 0 a2.63 2.63 0 1 0 -5.26 0zM406.87 388.5 a2.63 2.63 0 1 0 5.26 0 a2.63 2.63 0 1 0 -5.26 0zM1036.87 367.5 a2.63 2.63 0 1 0 5.26 0 a2.63 2.63 0 1 0 -5.26 0zM280.87 388.5 a2.63 2.63 0 1 0 5.26 0 a2.63 2.63 0 1 0 -5.26 0zM889.87 430.5 a2.63 2.63 0 1 0 5.26 0 a2.63 2.63 0 1 0 -5.26 0z" fill="black"></path><path d="M406.87 199.5 a2.63 2.63 0 1 0 5.26 0 a2.63 2.63 0 1 0 -5.26 0zM91.87 262.5 a2.63 2.63 0 1 0 5.26 0 a2.63 2.63 0 1 0 -5.26 0z" fill="black"></path><path d="M448.87 430.5 a2.63 2.63 0 1 0 5.26 0 a2.63 2.63 0 1 0 -5.26 0zM217.87 451.5 a2.63 2.63 0 1 0 5.26 0 a2.63 2.63 0 1 0 -5.26 0zM217.87 430.5 a2.63 2.63 0 1 0 5.26 0 a2.63 2.63 0 1 0 -5.26 0zM448.87 451.5 a2.63 2.63 0 1 0 5.26 0 a2.63 2.63 0 1 0 -5.26 0zM301.87 451.5 a2.63 2.63 0 1 0 5.26 0 a2.63 2.63 0 1 0 -5.26 0zM280.87 451.5 a2.63 2.63 0 1 0 5.26 0 a2.63 2.63 0 1 0 -5.26 0z" fill="black"></path><path d="M7.87 262.5 a2.63 2.63 0 1 0 5.26 0 a2.63 2.63 0 1 0 -5.26 0z" fill="black"></path><path d="M49.87 451.5 a2.63 2.63 0 1 0 5.26 0 a2.63 2.63 0 1 0 -5.26 0z" fill="black"></path><path d="M1036.87 157.5 a2.63 2.63 0 1 0 5.26 0 a2.63 2.63 0 1 0 -5.26 0zM658.87 199.5 a2.63 2.63 0 1 0 5.26 0 a2.63 2.63 0 1 0 -5.26 0zM994.87 136.5 a2.63 2.63 0 1 0 5.26 0 a2.63 2.63 0 1 0 -5.26 0zM1036.87 178.5 a2.63 2.63 0 1 0 5.26 0 a2.63 2.63 0 1 0 -5.26 0zM1036.87 136.5 a2.63 2.63 0 1 0 5.26 0 a2.63 2.63 0 1 0 -5.26 0zM1036.87 199.5 a2.63 2.63 0 1 0 5.26 0 a2.63 2.63 0 1 0 -5.26 0zM826.87 136.5 a2.63 2.63 0 1 0 5.26 0 a2.63 2.63 0 1 0 -5.26 0zM280.87 199.5 a2.63 2.63 0 1 0 5.26 0 a2.63 2.63 0 1 0 -5.26 0zM742.87 199.5 a2.63 2.63 0 1 0 5.26 0 a2.63 2.63 0 1 0 -5.26 0zM700.87 199.5 a2.63 2.63 0 1 0 5.26 0 a2.63 2.63 0 1 0 -5.26 0zM70.87 220.5 a2.63 2.63 0 1 0 5.26 0 a2.63 2.63 0 1 0 -5.26 0zM1036.87 241.5 a2.63 2.63 0 1 0 5.26 0 a2.63 2.63 0 1 0 -5.26 0zM238.87 199.5 a2.63 2.63 0 1 0 5.26 0 a2.63 2.63 0 1 0 -5.26 0z" fill="black"></path><path d="M637.87 493.5 a2.63 2.63 0 1 0 5.26 0 a2.63 2.63 0 1 0 -5.26 0zM595.87 472.5 a2.63 2.63 0 1 0 5.26 0 a2.63 2.63 0 1 0 -5.26 0zM574.87 451.5 a2.63 2.63 0 1 0 5.26 0 a2.63 2.63 0 1 0 -5.26 0zM343.87 493.5 a2.63 2.63 0 1 0 5.26 0 a2.63 2.63 0 1 0 -5.26 0zM658.87 514.5 a2.63 2.63 0 1 0 5.26 0 a2.63 2.63 0 1 0 -5.26 0zM448.87 472.5 a2.63 2.63 0 1 0 5.26 0 a2.63 2.63 0 1 0 -5.26 0zM427.87 451.5 a2.63 2.63 0 1 0 5.26 0 a2.63 2.63 0 1 0 -5.26 0zM427.87 472.5 a2.63 2.63 0 1 0 5.26 0 a2.63 2.63 0 1 0 -5.26 0zM553.87 535.5 a2.63 2.63 0 1 0 5.26 0 a2.63 2.63 0 1 0 -5.26 0z" fill="black"></path><path d="M889.87 136.5 a2.63 2.63 0 1 0 5.26 0 a2.63 2.63 0 1 0 -5.26 0zM658.87 136.5 a2.63 2.63 0 1 0 5.26 0 a2.63 2.63 0 1 0 -5.26 0zM889.87 94.5 a2.63 2.63 0 1 0 5.26 0 a2.63 2.63 0 1 0 -5.26 0zM49.87 220.5 a2.63 2.63 0 1 0 5.26 0 a2.63 2.63 0 1 0 -5.26 0zM910.87 115.5 a2.63 2.63 0 1 0 5.26 0 a2.63 2.63 0 1 0 -5.26 0zM742.87 115.5 a2.63 2.63 0 1 0 5.26 0 a2.63 2.63 0 1 0 -5.26 0zM805.87 136.5 a2.63 2.63 0 1 0 5.26 0 a2.63 2.63 0 1 0 -5.26 0zM763.87 157.5 a2.63 2.63 0 1 0 5.26 0 a2.63 2.63 0 1 0 -5.26 0zM217.87 199.5 a2.63 2.63 0 1 0 5.26 0 a2.63 2.63 0 1 0 -5.26 0zM469.87 136.5 a2.63 2.63 0 1 0 5.26 0 a2.63 2.63 0 1 0 -5.26 0z" fill="black"></path><path d="M490.87 514.5 a2.63 2.63 0 1 0 5.26 0 a2.63 2.63 0 1 0 -5.26 0zM490.87 535.5 a2.63 2.63 0 1 0 5.26 0 a2.63 2.63 0 1 0 -5.26 0zM553.87 556.5 a2.63 2.63 0 1 0 5.26 0 a2.63 2.63 0 1 0 -5.26 0zM196.87 514.5 a2.63 2.63 0 1 0 5.26 0 a2.63 2.63 0 1 0 -5.26 0zM406.87 535.5 a2.63 2.63 0 1 0 5.26 0 a2.63 2.63 0 1 0 -5.26 0zM385.87 535.5 a2.63 2.63 0 1 0 5.26 0 a2.63 2.63 0 1 0 -5.26 0zM238.87 493.5 a2.63 2.63 0 1 0 5.26 0 a2.63 2.63 0 1 0 -5.26 0z" fill="black"></path><path d="M847.87 73.5 a2.63 2.63 0 1 0 5.26 0 a2.63 2.63 0 1 0 -5.26 0zM973.87 73.5 a2.63 2.63 0 1 0 5.26 0 a2.63 2.63 0 1 0 -5.26 0zM322.87 136.5 a2.63 2.63 0 1 0 5.26 0 a2.63 2.63 0 1 0 -5.26 0zM196.87 157.5 a2.63 2.63 0 1 0 5.26 0 a2.63 2.63 0 1 0 -5.26 0zM637.87 73.5 a2.63 2.63 0 1 0 5.26 0 a2.63 2.63 0 1 0 -5.26 0zM805.87 52.5 a2.63 2.63 0 1 0 5.26 0 a2.63 2.63 0 1 0 -5.26 0zM322.87 115.5 a2.63 2.63 0 1 0 5.26 0 a2.63 2.63 0 1 0 -5.26 0zM721.87 115.5 a2.63 2.63 0 1 0 5.26 0 a2.63 2.63 0 1 0 -5.26 0zM469.87 73.5 a2.63 2.63 0 1 0 5.26 0 a2.63 2.63 0 1 0 -5.26 0zM553.87 52.5 a2.63 2.63 0 1 0 5.26 0 a2.63 2.63 0 1 0 -5.26 0zM448.87 52.5 a2.63 2.63 0 1 0 5.26 0 a2.63 2.63 0 1 0 -5.26 0z" fill="black"></path><path d="M490.87 598.5 a2.63 2.63 0 1 0 5.26 0 a2.63 2.63 0 1 0 -5.26 0zM133.87 535.5 a2.63 2.63 0 1 0 5.26 0 a2.63 2.63 0 1 0 -5.26 0zM406.87 556.5 a2.63 2.63 0 1 0 5.26 0 a2.63 2.63 0 1 0 -5.26 0zM427.87 598.5 a2.63 2.63 0 1 0 5.26 0 a2.63 2.63 0 1 0 -5.26 0zM385.87 556.5 a2.63 2.63 0 1 0 5.26 0 a2.63 2.63 0 1 0 -5.26 0zM511.87 619.5 a2.63 2.63 0 1 0 5.26 0 a2.63 2.63 0 1 0 -5.26 0zM133.87 556.5 a2.63 2.63 0 1 0 5.26 0 a2.63 2.63 0 1 0 -5.26 0z" fill="black"></path></mask></defs></svg>